<?xml version="1.0" encoding="UTF-8"?><svg id="Layer_1" xmlns="http://www.w3.org/2000/svg" viewBox="0 0 146.42 146.42"><defs><style>.cls-1{stroke:#1f3242;stroke-miterlimit:10;stroke-width:1.71px;}.cls-1,.cls-2,.cls-3{fill:none;}.cls-2{stroke:#1c3241;}.cls-2,.cls-3{stroke-linecap:round;stroke-linejoin:round;stroke-width:2.6px;}.cls-3{stroke:#07ae82;}</style></defs><circle class="cls-1" cx="73.21" cy="73.21" r="72.36"/><g><path class="cls-3" d="M60.12,96.47v-11.41c0-4.73,4.27-8.56,9.53-8.56h7.95c5.27,0,9.53-3.83,9.53-8.56v-19.97"/><polyline class="cls-3" points="80.78 52.25 87.13 46.54 93.49 52.25"/><ellipse class="cls-2" cx="61.71" cy="60.81" rx="6.36" ry="5.71"/><polyline class="cls-2" points="107.79 103.6 107.79 36.56 41.05 36.56 41.05 102.17"/><path class="cls-2" d="M41.05,112.16c-5.27,0-9.53-3.83-9.53-8.56"/><path class="cls-2" d="M98.26,112.16c-5.27,0-9.53-3.83-9.53-8.56"/><path class="cls-2" d="M98.26,112.16c5.27,0,9.53-3.83,9.53-8.56"/><line class="cls-2" x1="31.52" y1="103.6" x2="88.72" y2="103.6"/><line class="cls-2" x1="41.05" y1="112.16" x2="96.67" y2="112.16"/><line class="cls-2" x1="93.49" y1="85.3" x2="82.64" y2="95.04"/><line class="cls-2" x1="82.64" y1="85.3" x2="93.49" y2="95.04"/></g></svg>