<?xml version="1.0" encoding="UTF-8"?><svg id="Layer_1" xmlns="http://www.w3.org/2000/svg" viewBox="0 0 146.43 146.43"><defs><style>.cls-1{stroke:#1f3242;stroke-miterlimit:10;stroke-width:1.71px;}.cls-1,.cls-2,.cls-3{fill:none;}.cls-2{stroke:#00ae81;}.cls-2,.cls-3{stroke-linecap:round;stroke-linejoin:round;stroke-width:2.6px;}.cls-3{stroke:#1d3241;}</style></defs><circle class="cls-1" cx="73.22" cy="73.22" r="72.36"/><line class="cls-3" x1="75.83" y1="59.57" x2="98.32" y2="59.57"/><line class="cls-3" x1="75.83" y1="67.06" x2="98.32" y2="67.06"/><line class="cls-3" x1="75.83" y1="74.56" x2="87.07" y2="74.56"/><line class="cls-2" x1="51.47" y1="83.93" x2="51.47" y2="95.17"/><line class="cls-2" x1="51.47" y1="104.54" x2="51.47" y2="102.67"/><path class="cls-2" d="M48.78,72.27l-21.18,33.08c-1.34,2.1,.23,4.81,2.74,4.81h42.31c2.51,0,4.03-2.75,2.68-4.85l-21.18-33.04c-1.25-1.95-4.12-1.95-5.36,0h0Z"/><polyline class="cls-3" points="68.33 37.08 60.84 37.08 60.84 68.94"/><polyline class="cls-3" points="80.75 100.79 113.31 100.79 113.31 37.08 105.81 37.08"/><path class="cls-3" d="M91.57,35.2c0-2.48-2.01-4.5-4.5-4.5s-4.5,2.01-4.5,4.5h-4.87c-2.07,0-3.75,1.68-3.75,3.75v3.75h26.24v-3.75c0-2.07-1.68-3.75-3.75-3.75h-4.87Z"/></svg>