<?xml version="1.0" encoding="UTF-8"?><svg id="Layer_1" xmlns="http://www.w3.org/2000/svg" viewBox="0 0 146.42 146.42"><defs><style>.cls-1{stroke:#1f3242;stroke-miterlimit:10;stroke-width:1.71px;}.cls-1,.cls-2,.cls-3{fill:none;}.cls-2{stroke:#1c3241;stroke-width:2.89px;}.cls-2,.cls-3{stroke-linecap:round;stroke-linejoin:round;}.cls-3{stroke:#07ae82;stroke-width:2.26px;}</style></defs><circle class="cls-1" cx="73.21" cy="73.21" r="72.36"/><g><path class="cls-2" d="M100.09,102.21h6.48c2.42,0,4.38,1.96,4.38,4.38v4.38"/><path class="cls-2" d="M91.22,102.21h-4.38c-2.42,0-4.38,1.96-4.38,4.38v4.38"/><path class="cls-2" d="M99.99,110.98h10.96c2.42,0,4.38,1.96,4.38,4.38v4.38h-37.27v-4.38c0-2.42,1.96-4.38,4.38-4.38h6.58"/><path class="cls-2" d="M102.19,80.29v5.6s2.44,2.44,6.09,6.09c-3.04,2.39-3.9,6.46-1.7,10.23"/><path class="cls-2" d="M86.84,102.21c4.63-4.38,4.66-10.96-2.19-15.35v-10.96c0-9.59,6.58-15.35,15.35-15.35,3.17,0,7.48,1.66,9.5,3.65l-3.66,3.66,7.31,7.31v3.61l-3.65,3.7-2.92-2.19h-6.58c-2.42,0-4.38-1.96-4.38-4.38v-2.19"/><line class="cls-2" x1="56.15" y1="53.98" x2="45.19" y2="64.95"/><line class="cls-2" x1="45.19" y1="53.98" x2="56.15" y2="64.95"/><path class="cls-3" d="M73.69,47.41v14.46c0,3.33-1.51,6.48-4.11,8.56l-13.7,10.96c-2.6,2.08-4.11,5.23-4.11,8.56v5.69"/><line class="cls-3" x1="73.69" y1="47.41" x2="67.11" y2="53.98"/><line class="cls-3" x1="73.69" y1="47.41" x2="80.26" y2="53.98"/><polyline class="cls-2" points="84.1 29.87 93.42 29.87 93.42 52.7"/><polyline class="cls-2" points="72.41 108.79 32.03 108.79 32.03 29.87 41.35 29.87"/><path class="cls-2" d="M69.3,27.68c0-3.63-2.94-6.58-6.58-6.58s-6.58,2.95-6.58,6.58h-4.38c-2.42,0-4.38,1.96-4.38,4.38v4.38h30.69v-4.38c0-2.42-1.96-4.38-4.38-4.38h-4.38Z"/></g></svg>