<?xml version="1.0" encoding="UTF-8"?><svg id="Layer_1" xmlns="http://www.w3.org/2000/svg" viewBox="0 0 146.42 146.42"><defs><style>.cls-1{stroke:#1f3242;stroke-miterlimit:10;stroke-width:1.71px;}.cls-1,.cls-2,.cls-3{fill:none;}.cls-2{stroke:#1c3241;}.cls-2,.cls-3{stroke-linecap:round;stroke-linejoin:round;stroke-width:2.6px;}.cls-3{stroke:#07ae82;}</style></defs><circle class="cls-1" cx="73.21" cy="73.21" r="72.36"/><path class="cls-2" d="M116.12,72.17c0,23.7-19.21,42.91-42.91,42.91s-42.91-19.21-42.91-42.91S49.51,29.26,73.21,29.26s42.91,19.21,42.91,42.91h0Z"/><path class="cls-2" d="M105.91,68.37c-1.75-15.14-13.75-27.14-28.88-28.89l-3.81,6.35-3.81-6.35c-15.14,1.75-27.14,13.75-28.89,28.89l6.35,3.81-6.35,3.81c1.75,15.14,13.75,27.14,28.89,28.89l3.81-6.35,3.81,6.35c15.14-1.75,27.14-13.75,28.88-28.89l-6.35-3.81,6.35-3.81h0Z"/><polygon class="cls-3" points="90.17 55.22 67.43 66.39 56.25 89.13 78.99 77.95 90.17 55.22 90.17 55.22"/></svg>