<?xml version="1.0" encoding="UTF-8"?><svg id="Layer_1" xmlns="http://www.w3.org/2000/svg" viewBox="0 0 146.42 146.42"><defs><style>.cls-1{stroke:#1f3242;stroke-miterlimit:10;stroke-width:1.71px;}.cls-1,.cls-2,.cls-3{fill:none;}.cls-2{stroke:#1c3241;}.cls-2,.cls-3{stroke-linecap:round;stroke-linejoin:round;stroke-width:2.6px;}.cls-3{stroke:#07ae82;}</style></defs><circle class="cls-1" cx="73.21" cy="73.21" r="72.36"/><line class="cls-2" x1="73.63" y1="57.22" x2="97.24" y2="57.22"/><line class="cls-2" x1="73.63" y1="65.08" x2="97.24" y2="65.08"/><line class="cls-2" x1="73.63" y1="72.95" x2="85.43" y2="72.95"/><path class="cls-3" d="M45.23,70.55l-22.24,34.73c-1.41,2.21,.24,5.05,2.88,5.05h44.41c2.63,0,4.23-2.89,2.82-5.09l-22.24-34.69c-1.31-2.05-4.32-2.05-5.63,0h0Z"/><polyline class="cls-2" points="65.76 33.61 57.89 33.61 57.89 67.05"/><polyline class="cls-2" points="78.79 100.5 112.97 100.5 112.97 33.61 105.11 33.61"/><path class="cls-2" d="M90.15,31.64c0-2.61-2.11-4.72-4.72-4.72s-4.72,2.11-4.72,4.72h-5.11c-2.17,0-3.93,1.76-3.93,3.93v3.93h27.54v-3.93c0-2.17-1.76-3.93-3.93-3.93h-5.12Z"/></svg>