<?xml version="1.0" encoding="UTF-8"?><svg id="Layer_1" xmlns="http://www.w3.org/2000/svg" viewBox="0 0 139.19 134.49"><defs><style>.cls-1{stroke:#1c3241;stroke-width:3.31px;}.cls-1,.cls-2{fill:none;stroke-linecap:round;stroke-linejoin:round;}.cls-2{stroke:#07ae82;stroke-width:2.8px;}</style></defs><line class="cls-1" x1="78.75" y1="43.11" x2="115.87" y2="43.11"/><line class="cls-1" x1="78.75" y1="55.49" x2="97.31" y2="55.49"/><polyline class="cls-1" points="67.14 12.18 57.09 12.18 57.09 64.77"/><path class="cls-1" d="M81.84,101.9c0,5.13-4.16,9.28-9.28,9.28s-9.28-4.16-9.28-9.28,4.16-9.28,9.28-9.28,9.28,4.16,9.28,9.28h0Z"/><path class="cls-1" d="M96.6,94.16c-.42-1.32-.94-2.6-1.55-3.81l3.22-6.5-7.66-7.66-6.5,3.22c-1.22-.62-2.49-1.13-3.81-1.55l-2.32-6.9h-10.83l-2.32,6.9c-1.32,.42-2.59,.93-3.81,1.55l-6.5-3.22-7.66,7.66,3.21,6.49c-.63,1.22-1.16,2.5-1.59,3.83l-6.85,2.32v10.83l6.9,2.32c.42,1.32,.94,2.6,1.55,3.81l-3.22,6.5,7.66,7.66,6.5-3.22c1.22,.62,2.49,1.13,3.81,1.55l2.32,6.9h10.83l2.32-6.9c1.32-.42,2.6-.93,3.81-1.55l6.5,3.22,7.66-7.66-3.21-6.49c.63-1.22,1.16-2.5,1.59-3.83l6.85-2.32v-10.83l-6.9-2.32h0Z"/><path class="cls-2" d="M41.62,58.58c0,5.13-4.16,9.28-9.28,9.28s-9.28-4.16-9.28-9.28,4.16-9.28,9.28-9.28,9.28,4.16,9.28,9.28h0Z"/><path class="cls-2" d="M32.34,89.52h-5.41l-2.32-6.9c-1.32-.42-2.59-.93-3.81-1.55l-6.5,3.22-7.66-7.66,3.22-6.5c-.61-1.22-1.13-2.49-1.55-3.81l-6.9-2.32v-10.83l6.85-2.32c.43-1.33,.96-2.61,1.59-3.83l-3.21-6.49,7.66-7.66,6.5,3.22c1.22-.62,2.49-1.13,3.81-1.55l2.32-6.9h10.83l2.32,6.9c1.32,.42,2.59,.93,3.81,1.55l1.7-1.2"/><polyline class="cls-1" points="109.3 117.37 137.53 117.37 137.53 12.18 127.47 12.18"/><path class="cls-1" d="M104.73,9.08c0-4.1-3.33-7.42-7.43-7.42s-7.43,3.32-7.43,7.42h-8.04c-3.42,0-6.19,2.77-6.19,6.19v6.19h43.31v-6.19c0-3.42-2.77-6.19-6.19-6.19h-8.04Z"/></svg>