<?xml version="1.0" encoding="UTF-8"?><svg id="Layer_1" xmlns="http://www.w3.org/2000/svg" viewBox="0 0 146.43 146.43"><defs><style>.cls-1{stroke:#1f3242;stroke-miterlimit:10;stroke-width:1.71px;}.cls-1,.cls-2,.cls-3{fill:none;}.cls-2{stroke:#00ae81;}.cls-2,.cls-3{stroke-linecap:round;stroke-linejoin:round;stroke-width:2.6px;}.cls-3{stroke:#1d3241;}</style></defs><circle class="cls-1" cx="73.22" cy="73.22" r="72.36"/><path class="cls-3" d="M61.73,64.25v6.08"/><path class="cls-2" d="M57.68,78.44v8.11h-12.16l26.35,36.49,26.35-36.49h-10.14V48.03m0-4.05v-4.05m0-4.05v-4.05m10.14,30.41v-24.33m-46.56,35.02v-20.27m0-4.05v-4.05m0-4.05v-4.05m0-4.05v-4.05m26.28,33.9v20.27"/><path class="cls-3" d="M88.08,43.98v-4.05m0-4.05v-4.05m10.14,30.41v-24.33m-46.56,35.02v-20.27m0-4.05v-4.05m0-4.05v-4.05m0-4.05v-4.05m26.28,33.9v20.27"/></svg>