<?xml version="1.0" encoding="UTF-8"?><svg id="Layer_1" xmlns="http://www.w3.org/2000/svg" viewBox="0 0 144.93 144.93"><defs><style>.cls-1{stroke:#07ae82;}.cls-1,.cls-2{fill:none;stroke-linejoin:round;stroke-width:3.49px;}.cls-2{stroke:#1c3241;stroke-linecap:round;}</style></defs><polygon class="cls-1" points="33.18 101.28 33.18 90.8 72.46 80.32 111.75 90.8 111.75 101.28 33.18 101.28 33.18 101.28"/><path class="cls-2" d="M111.75,96.04h28.81c1.45,0,2.62,1.17,2.62,2.62v10.48c0,1.45-1.17,2.62-2.62,2.62h-23.57m-89.05,0H4.36c-1.45,0-2.62-1.17-2.62-2.62v-10.48c0-1.45,1.17-2.62,2.62-2.62h28.81m5.24,5.24v41.91m15.72-41.91v41.91m18.33-41.91v41.91m65.48-31.43v15.72M6.98,111.75v15.72m15.72-15.72v26.19m99.53-26.19v26.19m-15.72-36.67v41.91m-15.72-41.91v41.91M38.41,77.7v-13.1c0-23.14,15.24-41.91,34.05-41.91s34.05,18.76,34.05,41.91v13.1"/><polyline class="cls-1" points="72.46 22.7 72.46 1.74 88.18 1.74 88.18 12.22 72.46 12.22"/><path class="cls-2" d="M33.18,64.61H111.75m-57.62,10.48v-10.48m18.33,5.24v-5.24m18.33,10.48v-10.48"/></svg>