<?xml version="1.0" encoding="UTF-8"?><svg id="Layer_1" xmlns="http://www.w3.org/2000/svg" viewBox="0 0 55.82 55.82"><defs><style>.cls-1{fill:#fff;}.cls-2{fill:#193243;}</style></defs><circle class="cls-1" cx="27.91" cy="27.91" r="27.91"/><g><path class="cls-2" d="M44.53,20.13c0-1.84-1.51-3.35-3.35-3.35H13.17c-1.84,0-3.35,1.51-3.35,3.35v15.56c0,1.84,1.51,3.35,3.35,3.35h28.02c1.84,0,3.35-1.51,3.35-3.35v-15.56h0Z"/><path class="cls-1" d="M32.4,27.64c.26,.15,.26,.4,0,.55l-3.93,2.27c-.26,.15-.69,.4-.95,.55l-3.93,2.27c-.26,.15-.47,.03-.47-.27v-10.17c0-.3,.21-.42,.47-.27l3.93,2.27c.26,.15,.69,.4,.95,.55l3.93,2.27h0Z"/></g></svg>