<?xml version="1.0" encoding="UTF-8"?><svg id="Layer_1" xmlns="http://www.w3.org/2000/svg" viewBox="0 0 146.42 146.42"><defs><style>.cls-1{stroke:#1f3242;stroke-miterlimit:10;stroke-width:1.71px;}.cls-1,.cls-2,.cls-3{fill:none;}.cls-2{stroke:#1c3241;}.cls-2,.cls-3{stroke-linecap:round;stroke-linejoin:round;stroke-width:2.6px;}.cls-3{stroke:#07ae82;}</style></defs><circle class="cls-1" cx="73.21" cy="73.21" r="72.36"/><path class="cls-3" d="M70.2,69.19v-6.03c0-4.02-5.53-6.03-10.05-6.03s-10.05,2.01-10.05,6.03v6.03h20.09Zm-10.05-12.06c3.62,0,6.03-2.7,6.03-6.03v-2.01c0-3.33-2.4-6.03-6.03-6.03s-6.03,2.7-6.03,6.03v2.01c0,3.33,2.4,6.03,6.03,6.03h0Zm16.07-4.02h22.1m-22.1,8.04h22.1m-22.1,8.04h16.07m-42.19,44.2v-26.12h8.04v26.12m8.04,0v-32.15h8.04v32.15m8.04,0v-16.07h8.04v16.07"/><polygon class="cls-2" points="106.36 119.42 40.06 119.42 40.06 27 96.32 27 106.36 37.05 106.36 119.42 106.36 119.42"/></svg>