<?xml version="1.0" encoding="UTF-8"?><svg id="Layer_1" xmlns="http://www.w3.org/2000/svg" viewBox="0 0 55.82 55.82"><defs><style>.cls-1{fill:#fff;}.cls-2{fill:#193243;}</style></defs><circle class="cls-1" cx="27.91" cy="27.91" r="27.91"/><polygon class="cls-2" points="14.91 40.82 20.62 40.82 20.62 22.39 14.91 22.39 14.91 40.82 14.91 40.82"/><path class="cls-2" d="M17.74,19.98c1.86,0,3.37-1.52,3.37-3.4s-1.51-3.4-3.37-3.4-3.37,1.52-3.37,3.4,1.51,3.4,3.37,3.4h0Z"/><path class="cls-2" d="M29.73,31.14c0-2.59,1.19-4.13,3.48-4.13,2.1,0,3.1,1.48,3.1,4.13v9.67h5.68v-11.67c0-4.93-2.8-7.32-6.7-7.32s-5.55,3.04-5.55,3.04v-2.48h-5.47v18.42h5.47v-9.67h0Z"/></svg>