<?xml version="1.0" encoding="UTF-8"?><svg id="Layer_1" xmlns="http://www.w3.org/2000/svg" viewBox="0 0 146.42 146.42"><defs><style>.cls-1{stroke:#1f3242;stroke-miterlimit:10;stroke-width:1.71px;}.cls-1,.cls-2,.cls-3{fill:none;}.cls-2{stroke:#1c3241;}.cls-2,.cls-3{stroke-linecap:round;stroke-linejoin:round;stroke-width:2.6px;}.cls-3{stroke:#07ae82;}</style></defs><circle class="cls-1" cx="73.21" cy="73.21" r="72.36"/><path class="cls-3" d="M97.8,52.1v-7.97c-9.41,0-30.55-8.43-33.84-13.11-3.29,4.68-25.26,13.11-33.88,13.11v33.86c0,15.92,31.98,35.35,33.86,35.85,.55-.15,4.57-2.98,8.21-5.53"/><path class="cls-2" d="M121.7,83.97c0,14.3-11.59,25.89-25.89,25.89s-25.89-11.59-25.89-25.89,11.59-25.89,25.89-25.89,25.89,11.59,25.89,25.89h0Zm-15.93-11.95l-13.94,13.94-5.98-5.98-5.98,5.98,11.95,11.95,19.92-19.92-5.98-5.98h0Z"/></svg>