<?xml version="1.0" encoding="UTF-8"?><svg id="Layer_1" xmlns="http://www.w3.org/2000/svg" viewBox="0 0 146.42 146.42"><defs><style>.cls-1{stroke:#1f3242;stroke-miterlimit:10;stroke-width:1.71px;}.cls-1,.cls-2,.cls-3{fill:none;}.cls-2{stroke:#1c3241;stroke-width:2.89px;}.cls-2,.cls-3{stroke-linecap:round;stroke-linejoin:round;}.cls-3{stroke:#07ae82;stroke-width:2.26px;}</style></defs><circle class="cls-1" cx="73.21" cy="73.21" r="72.36"/><line class="cls-2" x1="65.23" y1="74.87" x2="72.3" y2="79.59"/><line class="cls-2" x1="79.37" y1="74.87" x2="72.3" y2="79.59"/><line class="cls-3" x1="72.3" y1="23.05" x2="72.3" y2="34.82"/><line class="cls-3" x1="47.56" y1="29.67" x2="53.45" y2="39.88"/><line class="cls-3" x1="29.45" y1="47.78" x2="39.66" y2="53.67"/><line class="cls-3" x1="22.83" y1="72.52" x2="34.61" y2="72.52"/><line class="cls-3" x1="29.45" y1="97.26" x2="39.66" y2="91.37"/><line class="cls-3" x1="115.14" y1="97.26" x2="104.94" y2="91.37"/><line class="cls-3" x1="121.77" y1="72.52" x2="109.99" y2="72.52"/><line class="cls-3" x1="115.14" y1="47.78" x2="104.94" y2="53.67"/><line class="cls-3" x1="97.04" y1="29.67" x2="91.15" y2="39.88"/><line class="cls-2" x1="72.3" y1="79.59" x2="72.3" y2="98.43"/><path class="cls-2" d="M84.08,105.5v-9.94c8.38-4.29,14.14-12.98,14.14-23.04,0-14.31-11.6-25.91-25.91-25.91s-25.91,11.6-25.91,25.91c0,10.06,5.75,18.75,14.14,23.04v9.94"/><polyline class="cls-2" points="72.3 119.64 51.1 119.64 55.81 105.5 88.79 105.5 93.5 119.64 84.08 119.64"/></svg>