<?xml version="1.0" encoding="UTF-8"?><svg id="Layer_1" xmlns="http://www.w3.org/2000/svg" viewBox="0 0 146.42 146.42"><defs><style>.cls-1{stroke:#1f3242;stroke-miterlimit:10;stroke-width:1.71px;}.cls-1,.cls-2,.cls-3{fill:none;}.cls-2{stroke:#07ae82;stroke-width:2.8px;}.cls-2,.cls-3{stroke-linecap:round;stroke-linejoin:round;}.cls-3{stroke:#1c3241;stroke-width:2.81px;}</style></defs><g><path class="cls-2" d="M71.89,55.22c5.98,0,10.44-5.01,10.44-11.18v-3.73c0-6.18-4.46-11.18-10.44-11.18s-10.44,5.01-10.44,11.18v3.73c0,6.18,4.46,11.18,10.44,11.18h0Z"/><path class="cls-2" d="M92.77,73.48v-7.94c0-7.2-13.07-10.44-19.57-10.44s-19.57,3.24-19.57,10.44v7.94"/><path class="cls-3" d="M74.5,102.19c5.98,0,10.44-5.01,10.44-11.18v-3.73c0-6.18-4.46-11.18-10.44-11.18s-10.44,5.01-10.44,11.18v3.73c0,6.18,4.46,11.18,10.44,11.18h0Z"/><path class="cls-3" d="M95.38,120.46v-7.94c0-7.19-13.07-10.44-19.57-10.44s-19.57,3.24-19.57,10.44v7.94"/><path class="cls-3" d="M113.65,78.7c5.98,0,10.44-5.01,10.44-11.18v-3.73c0-6.18-4.46-11.18-10.44-11.18s-10.44,5.01-10.44,11.18v3.73c0,6.18,4.46,11.18,10.44,11.18h0Z"/><path class="cls-3" d="M134.52,96.97v-7.94c0-7.19-13.07-10.44-19.57-10.44s-19.57,3.24-19.57,10.44v7.94"/><path class="cls-3" d="M32.75,78.7c5.98,0,10.44-5.01,10.44-11.18v-3.73c0-6.18-4.46-11.18-10.44-11.18s-10.44,5.01-10.44,11.18v3.73c0,6.18,4.46,11.18,10.44,11.18h0Z"/><path class="cls-3" d="M53.62,96.97v-7.94c0-7.19-13.07-10.44-19.57-10.44s-19.57,3.24-19.57,10.44v7.94"/></g><circle class="cls-1" cx="73.21" cy="73.21" r="72.36"/></svg>