<?xml version="1.0" encoding="UTF-8"?><svg id="Layer_1" xmlns="http://www.w3.org/2000/svg" viewBox="0 0 55.82 55.82"><defs><style>.cls-1{fill:#fff;}.cls-2{fill:#193243;}</style></defs><circle class="cls-1" cx="27.91" cy="27.91" r="27.91"/><path class="cls-2" d="M23.34,39.84c-3.04,0-5.87-.89-8.25-2.42,.42,.05,.85,.08,1.28,.08,2.52,0,4.84-.86,6.68-2.3-2.35-.04-4.34-1.6-5.03-3.74,.33,.06,.67,.1,1.01,.1,.49,0,.97-.07,1.42-.19-2.46-.49-4.32-2.67-4.32-5.28,0-.02,0-.05,0-.07,.73,.4,1.56,.65,2.44,.67-1.44-.97-2.39-2.61-2.39-4.48,0-.99,.27-1.91,.73-2.71,2.65,3.26,6.62,5.4,11.09,5.62-.09-.39-.14-.8-.14-1.23,0-2.97,2.41-5.38,5.38-5.38,1.55,0,2.95,.65,3.93,1.7,1.23-.24,2.38-.69,3.42-1.31-.4,1.26-1.26,2.31-2.37,2.98,1.09-.13,2.13-.42,3.09-.85-.72,1.08-1.63,2.03-2.69,2.79,.01,.23,.02,.46,.02,.7,0,7.11-5.41,15.31-15.31,15.31"/></svg>