<?xml version="1.0" encoding="UTF-8"?><svg id="Layer_1" xmlns="http://www.w3.org/2000/svg" viewBox="0 0 450 100.59"><defs><style>.cls-1{fill:#00ac80;}.cls-2{fill:#fff;}.cls-3{fill:#7a848d;}</style></defs><path class="cls-2" d="M17.2,56.65c-.23-1.6-.34-3.24-.34-4.92,0-7.54,2.36-14.34,6.36-20.09,6.26-9,16.44-14.65,28.44-14.78,16.55-.17,30.03,12.07,33.48,24.92,4.73,4.73,10.34,10.5,17.67,17.83,.18-1.77,.6-6.23,.6-8.04C103.41,23.06,80.13,0,51.62,0S0,23.11,0,51.62c0,6.79,1.31,13.28,3.69,19.22l13.51-14.19h0Z"/><path class="cls-1" d="M45.42,44.61s22.85,22.75,31.42,31.31c-1.86,1.93-3.94,3.65-6.2,5.12-6.55-6.55-13.72-13.81-20.1-20.2-4.92,4.92-14.96,14.79-19.27,19.1-7.59-5.6-12.82-13.88-14.09-23.58l.03,.28-13.49,14.18c5.37,13.39,16.19,24.02,29.72,29.12l.09-.1c4.76-4.76,12.77-12.94,17.18-17.35,6.38,6.39,12.88,13.03,17.93,18.09,12.51-4.54,22.74-12.78,28.91-24.89-11.29-11.29-41.36-41.73-41.36-41.73l-10.75,10.65h0Z"/><path class="cls-3" d="M132.89,95.4c-.64,2.77-2.11,4.96-5.73,4.96s-6.15-2.38-6.15-8.85,2.46-8.78,6.25-8.78c3.5,0,5.08,2,5.55,4.77l-2.88,.78c-.32-1.58-1.11-2.7-2.78-2.7-2.06,0-3.05,1.65-3.05,5.89,0,4.52,1.07,6.06,3.05,6.06,1.61,0,2.43-1.07,2.83-2.87l2.9,.75h0Z"/><path class="cls-3" d="M141.96,91.19c1.29,0,2.21-.75,2.21-2.65,0-1.7-.84-2.68-2.36-2.68h-1.59v5.33h1.74Zm-.32,2.46h-1.42v6.42h-3.02v-17.03h4.81c3.42,0,5.18,2.21,5.18,5.45,0,2.26-.97,3.84-2.61,4.5l2.93,7.08h-3.4l-2.48-6.42h0Z"/><polygon class="cls-3" points="151.71 83.04 160.91 83.04 160.91 85.89 154.73 85.89 154.73 89.85 159.45 89.85 159.45 92.7 154.73 92.7 154.73 97.22 160.98 97.22 160.98 100.07 151.71 100.07 151.71 83.04 151.71 83.04"/><path class="cls-3" d="M170.18,97.22c2.43,0,3.62-1.61,3.62-5.47,0-4.38-1.24-5.86-3.62-5.86h-1.74v11.33h1.74Zm.22-14.18c4.49,0,6.5,3.21,6.5,8.61s-1.91,8.42-6.33,8.42h-5.16v-17.03h4.98Z"/><polygon class="cls-3" points="181.2 83.04 184.22 83.04 184.22 100.07 181.2 100.07 181.2 83.04 181.2 83.04"/><polygon class="cls-3" points="195.13 85.89 195.13 100.07 192.11 100.07 192.11 85.89 188.36 85.89 188.36 83.04 198.9 83.04 198.9 85.89 195.13 85.89 195.13 85.89"/><path class="cls-3" d="M220.8,94.4c0,4.11-1.84,5.96-5.36,5.96s-5.36-1.85-5.36-5.96v-11.36h3.05v11.36c0,2,.6,3.11,2.41,3.11s2.4-1.12,2.4-3.11v-11.36h2.85v11.36h0Z"/><path class="cls-3" d="M228.39,89.17h-.07s.05,2.07,.05,4.09v6.81h-2.9v-17.03h3.12l5.31,11.19h.08s-.02-1.95-.02-4.11v-7.08h2.9v17.03h-3.13l-5.33-10.9h0Z"/><polygon class="cls-3" points="241.66 83.04 244.68 83.04 244.68 100.07 241.66 100.07 241.66 83.04 241.66 83.04"/><path class="cls-3" d="M255.25,97.51c2.11,0,3.2-1.48,3.2-5.93s-1.09-6.01-3.2-6.01-3.22,1.53-3.22,5.96,1.09,5.98,3.22,5.98h0Zm-.02-14.79c3.97,0,6.33,2.48,6.33,8.83s-2.33,8.81-6.33,8.81-6.3-2.43-6.3-8.83,2.33-8.81,6.3-8.81h0Z"/><path class="cls-3" d="M268.74,89.17h-.07s.05,2.07,.05,4.09v6.81h-2.9v-17.03h3.12l5.31,11.19h.08s-.02-1.95-.02-4.11v-7.08h2.9v17.03h-3.12l-5.33-10.9h0Z"/><path class="cls-3" d="M295.23,89.39c-.32-1.53-.72-3.48-.72-3.53h-.07l-.75,3.48-.94,4.53h3.42l-.94-4.48h0Zm-3.05,7.22l-.69,3.45h-3.08l3.99-17.03h4.24l3.99,17.03h-3.17l-.72-3.45h-4.56Z"/><path class="cls-3" d="M306.93,95.08c.15,1.56,.84,2.51,2.43,2.51,1.26,0,2.01-.61,2.01-1.9,0-1.68-1.34-2.14-3-3.04-1.83-.97-4.07-2.12-4.07-5.45,0-2.7,1.56-4.48,4.91-4.48,2.61,0,4.86,1.05,5.26,4.33l-2.92,.78c-.25-1.65-.89-2.31-2.26-2.31-1.21,0-1.88,.51-1.88,1.7,0,1.51,1.11,2.02,3.05,2.99,2.03,1,4.02,2.09,4.02,5.38s-1.81,4.77-5.06,4.77c-2.83,0-5.06-1.22-5.4-4.5l2.93-.78h0Z"/><path class="cls-3" d="M321.04,95.08c.15,1.56,.84,2.51,2.43,2.51,1.26,0,2.01-.61,2.01-1.9,0-1.68-1.34-2.14-3-3.04-1.84-.97-4.07-2.12-4.07-5.45,0-2.7,1.56-4.48,4.91-4.48,2.61,0,4.86,1.05,5.26,4.33l-2.93,.78c-.25-1.65-.89-2.31-2.26-2.31-1.21,0-1.88,.51-1.88,1.7,0,1.51,1.12,2.02,3.05,2.99,2.03,1,4.02,2.09,4.02,5.38s-1.81,4.77-5.06,4.77c-2.83,0-5.06-1.22-5.4-4.5l2.93-.78h0Z"/><path class="cls-3" d="M338.65,97.51c2.11,0,3.2-1.48,3.2-5.93s-1.09-6.01-3.2-6.01-3.22,1.53-3.22,5.96,1.09,5.98,3.22,5.98h0Zm-.02-14.79c3.97,0,6.33,2.48,6.33,8.83s-2.34,8.81-6.33,8.81-6.3-2.43-6.3-8.83,2.33-8.81,6.3-8.81h0Z"/><path class="cls-3" d="M360.65,95.4c-.64,2.77-2.1,4.96-5.73,4.96s-6.15-2.38-6.15-8.85,2.45-8.78,6.24-8.78c3.5,0,5.09,2,5.56,4.77l-2.88,.78c-.33-1.58-1.12-2.7-2.78-2.7-2.06,0-3.05,1.65-3.05,5.89,0,4.52,1.06,6.06,3.05,6.06,1.61,0,2.43-1.07,2.83-2.87l2.9,.75h0Z"/><polygon class="cls-3" points="364.96 83.04 367.99 83.04 367.99 100.07 364.96 100.07 364.96 83.04 364.96 83.04"/><path class="cls-3" d="M378.77,89.39c-.32-1.53-.72-3.48-.72-3.53h-.07l-.74,3.48-.94,4.53h3.42l-.95-4.48h0Zm-3.05,7.22l-.69,3.45h-3.08l4-17.03h4.24l3.99,17.03h-3.18l-.72-3.45h-4.56Z"/><polygon class="cls-3" points="392.77 85.89 392.77 100.07 389.74 100.07 389.74 85.89 385.99 85.89 385.99 83.04 396.53 83.04 396.53 85.89 392.77 85.89 392.77 85.89"/><polygon class="cls-3" points="400.67 83.04 403.7 83.04 403.7 100.07 400.67 100.07 400.67 83.04 400.67 83.04"/><path class="cls-3" d="M414.27,97.51c2.11,0,3.2-1.48,3.2-5.93s-1.09-6.01-3.2-6.01-3.22,1.53-3.22,5.96,1.09,5.98,3.22,5.98h0Zm-.02-14.79c3.97,0,6.32,2.48,6.32,8.83s-2.34,8.81-6.32,8.81-6.3-2.43-6.3-8.83,2.33-8.81,6.3-8.81h0Z"/><path class="cls-3" d="M427.76,89.17h-.08s.05,2.07,.05,4.09v6.81h-2.91v-17.03h3.13l5.31,11.19h.07s-.02-1.95-.02-4.11v-7.08h2.9v17.03h-3.12l-5.33-10.9h0Z"/><polygon class="cls-2" points="344.22 48.51 367.65 48.51 367.65 41.51 344.22 41.51 344.22 24.58 369.58 24.58 369.58 17.37 335.29 17.37 335.29 72.24 370.69 72.24 370.69 65.44 344.22 65.44 344.22 48.51 344.22 48.51"/><polygon class="cls-2" points="413.59 17.37 413.59 24.58 427.17 24.58 427.17 72.24 436.21 72.24 436.21 24.58 450 24.58 450 17.37 413.59 17.37 413.59 17.37"/><path class="cls-1" d="M233.96,44.67c0,8.87-5.94,15.06-14.45,15.06s-14.45-6.19-14.45-15.06,5.94-15.06,14.45-15.06,14.45,6.19,14.45,15.06h0Zm-14.45-28.21c-16.23,0-28.47,12.13-28.47,28.21s12.24,28.21,28.47,28.21,28.47-12.13,28.47-28.21-12.24-28.21-28.47-28.21h0Z"/><path class="cls-1" d="M118.49,38.66c0,19.09,14.62,33.48,34.01,33.48,20.47,0,33.7-13.35,33.7-34.01v-5.94h-23.59l-10.87,13.23h17.07s.84,0,.84,0l-.12,.83c-.74,5.25-5.56,11.39-16.71,11.39s-18.79-7.81-18.79-18.99c0-5.24,1.79-10.02,5.02-13.47,3.39-3.61,8.04-5.52,13.45-5.52s10.83,2.09,15.34,6.05l9.2-11.2c-6.96-6.37-14.76-9.34-24.54-9.34-19.39,0-34.01,14.4-34.01,33.49h0Z"/><polygon class="cls-2" points="272.19 72.41 287.47 25.36 288.14 23.3 288.86 25.34 305.41 72.41 311.21 72.41 334.17 5.17 324.52 5.17 308.51 51.37 307.85 53.28 307.13 51.39 289.67 5.17 280.09 5.17 282.97 12.37 283.07 12.62 282.98 12.88 270.02 51.49 269.37 53.42 268.64 51.51 251.03 5.17 241.31 5.17 266.31 72.41 272.19 72.41 272.19 72.41"/><path class="cls-2" d="M397.21,41.86c-.66-.2-1.34-.4-2.02-.59-4.55-1.3-10.79-3.09-10.65-9.08,.11-4.94,4.13-8.43,9.57-8.31,4.26,.1,7.45,2.41,8.59,5.91l4.01-4.92,1.37-1.64c-2.46-3.6-6.75-6.5-14.22-6.67-9.76-.22-17.86,6.79-18.06,15.62-.17,7.86,3.38,11.97,13.58,15.73,.58,.21,1.19,.41,1.8,.62,4.66,1.59,11.04,3.76,10.9,9.68-.1,4.67-3.91,7.85-9.25,7.73-4.04-.09-7.41-2.69-8.6-6.22l-7.19,4.99c2.68,5.13,8.21,8.27,15.63,8.44,9.7,.22,17.76-6.79,17.96-15.63,.18-7.89-3.97-12.72-13.44-15.68h0Z"/></svg>