<?xml version="1.0" encoding="UTF-8"?>
<svg id="Layer_1" data-name="Layer 1" xmlns="http://www.w3.org/2000/svg" viewBox="0 0 446.01 107.43">
  <defs>
    <style>
      .cls-1 {
        fill: #539ba4;
      }

      .cls-1, .cls-2, .cls-3 {
        stroke-width: 0px;
      }

      .cls-2 {
        fill: #fff;
      }

      .cls-3 {
        fill: #7a848d;
      }
    </style>
  </defs>
  <path class="cls-2" d="m18.37,60.5c-.24-1.71-.36-3.46-.36-5.25,0-8.06,2.52-15.31,6.8-21.46,6.69-9.61,17.56-15.65,30.37-15.78,17.67-.19,32.07,12.89,35.75,26.62,5.06,5.06,11.04,11.21,18.88,19.04.2-1.89.64-6.65.64-8.59,0-30.45-24.87-55.08-55.32-55.08S0,24.68,0,55.13c0,7.25,1.4,14.18,3.95,20.52l14.42-15.16h0Z"/>
  <path class="cls-1" d="m48.51,47.64s24.4,24.29,33.55,33.44c-1.99,2.06-4.21,3.9-6.62,5.47-6.99-6.99-14.65-14.75-21.47-21.57-5.26,5.25-15.98,15.79-20.58,20.4-8.11-5.98-13.69-14.82-15.05-25.18l.03.3-14.41,15.15c5.74,14.3,17.28,25.65,31.73,31.09l.1-.1c5.09-5.09,13.63-13.82,18.34-18.53,6.82,6.82,13.76,13.92,19.15,19.32,13.36-4.85,24.28-13.65,30.88-26.58-12.06-12.06-44.18-44.57-44.18-44.57l-11.47,11.37h0Z"/>
  <path class="cls-1" d="m148.63,74.72c-.5-.15-1.01-.28-1.5-.42-3.42-.93-6.96-1.9-6.96-5.47s2.88-5.19,5.56-5.19c2.96,0,5.05,1.8,5.42,4.57h8.29c-.93-8.02-5.99-12.59-14.01-12.59s-14.1,5.99-14.1,13.36c0,6.51,2.97,9.98,10.95,12.83.44.15.89.3,1.35.45,3.38,1.11,7.22,2.37,7.22,5.94,0,2.84-2.15,4.75-5.34,4.75-2.71,0-4.97-2.01-5.41-4.64h-8.74c.42,7.57,6,12.59,14.15,12.59s14.03-5.99,14.03-13.36c0-6.52-3.46-10.59-10.9-12.81h0Z"/>
  <path class="cls-1" d="m187.54,92.5c-8.09,0-13.73-5.86-13.73-14.25s5.65-14.25,13.73-14.25,13.73,5.99,13.73,14.25-5.77,14.25-13.73,14.25h0Zm0-36.89c-13.25,0-22.86,9.52-22.86,22.64s9.61,22.64,22.86,22.64,22.86-9.73,22.86-22.64-9.83-22.64-22.86-22.64h0Z"/>
  <polygon class="cls-1" points="215.34 57.09 215.34 99.42 243.54 99.42 243.54 91.99 224.32 91.99 224.32 57.09 215.34 57.09 215.34 57.09"/>
  <path class="cls-1" d="m261.09,100.89c9.93,0,16.6-6.2,16.6-15.42v-28.38h-8.98v26.76c0,5.89-2.56,8.87-7.62,8.87-2.79,0-7.47-1.15-7.47-8.87v-26.76h-8.91v28.38c0,9.37,6.43,15.42,16.38,15.42h0Z"/>
  <polygon class="cls-1" points="309.06 57.09 280.13 57.09 280.13 64.82 289.99 64.82 289.99 99.42 299.05 99.42 299.05 64.82 309.06 64.82 309.06 57.09 309.06 57.09"/>
  <polygon class="cls-1" points="311.49 57.09 311.49 99.42 320.47 99.42 320.47 57.09 311.49 57.09 311.49 57.09"/>
  <path class="cls-1" d="m348.27,92.5c-8.08,0-13.73-5.86-13.73-14.25s5.65-14.25,13.73-14.25,13.73,5.99,13.73,14.25-5.77,14.25-13.73,14.25h0Zm0-36.89c-13.25,0-22.86,9.52-22.86,22.64s9.62,22.64,22.86,22.64,22.86-9.73,22.86-22.64-9.83-22.64-22.86-22.64h0Z"/>
  <polygon class="cls-1" points="413.54 99.42 413.54 57.09 404.63 57.09 404.63 85.46 386.06 57.09 376.06 57.09 376.06 99.42 385.04 99.42 385.04 70.98 403.69 99.42 413.54 99.42 413.54 99.42"/>
  <path class="cls-1" d="m435.11,74.72c-.5-.15-1-.28-1.5-.42-3.42-.93-6.96-1.9-6.96-5.47s2.88-5.19,5.56-5.19c2.96,0,5.05,1.8,5.43,4.57h8.29c-.93-8.02-5.99-12.59-14.01-12.59s-14.1,5.99-14.1,13.36c0,6.5,2.97,9.98,10.95,12.83.43.15.89.3,1.35.45,3.38,1.11,7.22,2.37,7.22,5.94,0,2.84-2.15,4.75-5.34,4.75-2.72,0-4.98-2.01-5.41-4.64h-8.74c.42,7.57,6,12.59,14.15,12.59,7.73,0,14.02-5.99,14.02-13.36,0-6.52-3.46-10.59-10.9-12.81h-.01Z"/>
  <polygon class="cls-3" points="251.18 34.47 263.59 34.47 263.59 30.76 251.18 30.76 251.18 21.79 264.61 21.79 264.61 17.98 246.45 17.98 246.45 47.05 265.2 47.05 265.2 43.44 251.18 43.44 251.18 34.47 251.18 34.47"/>
  <polygon class="cls-3" points="287.93 17.98 287.93 21.79 295.13 21.79 295.13 47.05 299.91 47.05 299.91 21.79 307.22 21.79 307.22 17.98 287.93 17.98 287.93 17.98"/>
  <path class="cls-2" d="m192.77,32.44c0,4.7-3.15,7.98-7.66,7.98s-7.66-3.28-7.66-7.98,3.15-7.98,7.66-7.98,7.66,3.28,7.66,7.98h0Zm-7.66-14.95c-8.6,0-15.08,6.43-15.08,14.95s6.48,14.95,15.08,14.95,15.08-6.43,15.08-14.95-6.49-14.95-15.08-14.95h0Z"/>
  <path class="cls-2" d="m131.59,29.26c0,10.11,7.75,17.74,18.02,17.74,10.84,0,17.85-7.07,17.85-18.02v-3.14h-12.49l-5.76,7.01h9.49l-.06.44c-.39,2.78-2.95,6.03-8.85,6.03s-9.95-4.14-9.95-10.06c0-2.77.95-5.31,2.66-7.14,1.8-1.91,4.26-2.93,7.12-2.93s5.74,1.11,8.13,3.21l4.88-5.94c-3.69-3.37-7.82-4.95-13-4.95-10.27,0-18.02,7.63-18.02,17.74h-.02Z"/>
  <polygon class="cls-3" points="213.02 47.14 221.12 22.21 221.47 21.12 221.85 22.2 230.62 47.14 233.69 47.14 245.85 11.51 240.74 11.51 232.26 35.99 231.91 37 231.53 36 222.28 11.51 217.2 11.51 218.73 15.33 218.78 15.46 218.74 15.6 211.87 36.05 211.52 37.08 211.14 36.06 201.81 11.51 196.66 11.51 209.9 47.14 213.02 47.14 213.02 47.14"/>
  <path class="cls-3" d="m279.25,30.95c-.35-.11-.71-.21-1.07-.31-2.41-.69-5.72-1.64-5.64-4.81.06-2.61,2.19-4.47,5.07-4.4,2.25.05,3.94,1.28,4.55,3.13l2.12-2.61.73-.87c-1.3-1.91-3.58-3.44-7.54-3.53-5.17-.12-9.46,3.6-9.57,8.28-.09,4.16,1.79,6.34,7.19,8.33l.96.33c2.47.84,5.85,1.99,5.78,5.13-.06,2.47-2.07,4.16-4.9,4.09-2.14-.05-3.92-1.42-4.56-3.29l-3.81,2.64c1.42,2.72,4.35,4.38,8.28,4.47,5.14.12,9.41-3.6,9.51-8.28.1-4.18-2.1-6.74-7.12-8.31h.02Z"/>
</svg>