<?xml version="1.0" encoding="UTF-8"?><svg id="Layer_1" xmlns="http://www.w3.org/2000/svg" viewBox="0 0 445.63 96.88"><defs><style>.cls-1{fill:#e57c27;}.cls-2{fill:#1f3242;}.cls-3{fill:#7a848d;}</style></defs><path class="cls-2" d="M16.56,54.56c-.21-1.54-.33-3.12-.33-4.74,0-7.27,2.27-13.81,6.13-19.35,6.03-8.67,15.83-14.11,27.39-14.23,15.94-.17,28.92,11.62,32.24,24,4.56,4.56,9.96,10.11,17.02,17.17,.18-1.7,.58-6,.58-7.75C99.6,22.21,77.18,0,49.72,0S0,22.26,0,49.72c0,6.54,1.26,12.79,3.56,18.51l13-13.67h0Z"/><path class="cls-1" d="M43.74,42.97s22,21.91,30.25,30.16c-1.79,1.86-3.8,3.51-5.97,4.93-6.31-6.3-13.21-13.3-19.36-19.45-4.74,4.74-14.41,14.24-18.56,18.39-7.31-5.39-12.34-13.37-13.57-22.71l.03,.27-12.99,13.66c5.17,12.9,15.59,23.13,28.62,28.04l.09-.09c4.59-4.59,12.29-12.46,16.54-16.71,6.15,6.15,12.41,12.55,17.27,17.42,12.05-4.37,21.9-12.31,27.85-23.97-10.88-10.87-39.84-40.2-39.84-40.2l-10.35,10.26h0Z"/><polygon class="cls-1" points="141.41 70.2 126.73 70.2 126.73 60.04 142.67 60.04 142.67 53.07 118.63 53.07 118.63 91.25 126.73 91.25 126.73 77.04 141.41 77.04 141.41 70.2 141.41 70.2"/><path class="cls-1" d="M165.41,85.01c-7.29,0-12.38-5.28-12.38-12.85s5.09-12.85,12.38-12.85,12.38,5.4,12.38,12.85-5.21,12.85-12.38,12.85h0Zm0-33.26c-11.94,0-20.62,8.59-20.62,20.42s8.67,20.42,20.62,20.42,20.62-8.78,20.62-20.42-8.86-20.42-20.62-20.42h0Z"/><path class="cls-1" d="M205.24,92.58c8.95,0,14.97-5.59,14.97-13.91v-25.6h-8.1v24.14c0,5.31-2.31,8-6.87,8-2.52,0-6.74-1.04-6.74-8v-24.14h-8.03v25.6c0,8.45,5.8,13.91,14.77,13.91h0Z"/><polygon class="cls-1" points="258.06 91.25 258.06 53.07 250.03 53.07 250.03 78.66 233.28 53.07 224.27 53.07 224.27 91.25 232.37 91.25 232.37 65.6 249.19 91.25 258.06 91.25 258.06 91.25"/><path class="cls-1" d="M274.97,84.01h-4.75v-23.77h4.75c6.98,0,11.85,4.87,11.85,11.85s-4.99,11.92-11.85,11.92h0Zm.2-30.94h-13.05v38.18h13.05c11.41,0,20.02-8.24,20.02-19.16s-8.79-19.02-20.02-19.02h0Z"/><path class="cls-1" d="M310.15,70.07h1.07l.36,.49,5.11,11.27h-11.95l5.41-11.75h0Zm9.09,17.06l1.99,4.12h8.66l-18.73-39.51h-.67l-18.61,39.51h8.66l1.93-4.12h16.78Z"/><polygon class="cls-1" points="350.56 53.07 324.46 53.07 324.46 60.04 333.36 60.04 333.36 91.25 341.53 91.25 341.53 60.04 350.56 60.04 350.56 53.07 350.56 53.07"/><polygon class="cls-1" points="353.61 53.07 353.61 91.25 361.71 91.25 361.71 53.07 353.61 53.07 353.61 53.07"/><path class="cls-1" d="M386.78,85.01c-7.29,0-12.38-5.28-12.38-12.85s5.09-12.85,12.38-12.85,12.38,5.4,12.38,12.85-5.21,12.85-12.38,12.85h0Zm0-33.26c-11.95,0-20.62,8.59-20.62,20.42s8.67,20.42,20.62,20.42,20.62-8.78,20.62-20.42-8.86-20.42-20.62-20.42h0Z"/><polygon class="cls-1" points="445.63 91.25 445.63 53.07 437.6 53.07 437.6 78.66 420.85 53.07 411.84 53.07 411.84 91.25 419.94 91.25 419.94 65.6 436.75 91.25 445.63 91.25 445.63 91.25"/><polygon class="cls-3" points="226.4 32.31 237.59 32.31 237.59 28.96 226.4 28.96 226.4 20.88 238.51 20.88 238.51 17.43 222.13 17.43 222.13 43.65 239.05 43.65 239.05 40.4 226.4 40.4 226.4 32.31 226.4 32.31"/><polygon class="cls-3" points="259.54 17.43 259.54 20.88 266.03 20.88 266.03 43.65 270.35 43.65 270.35 20.88 276.94 20.88 276.94 17.43 259.54 17.43 259.54 17.43"/><path class="cls-2" d="M173.72,30.47c0,4.24-2.84,7.19-6.91,7.19s-6.91-2.96-6.91-7.19,2.84-7.19,6.91-7.19,6.91,2.96,6.91,7.19h0Zm-6.91-13.48c-7.75,0-13.6,5.79-13.6,13.48s5.85,13.48,13.6,13.48,13.6-5.79,13.6-13.48-5.85-13.48-13.6-13.48h0Z"/><path class="cls-2" d="M118.56,27.61c0,9.12,6.99,16,16.25,16,9.78,0,16.1-6.38,16.1-16.25v-2.84h-11.27l-5.19,6.32h8.15s.4,0,.4,0l-.06,.4c-.35,2.51-2.66,5.44-7.99,5.44s-8.97-3.73-8.97-9.07c0-2.5,.85-4.79,2.4-6.44,1.62-1.73,3.84-2.64,6.43-2.64s5.18,1,7.33,2.89l4.4-5.35c-3.33-3.04-7.05-4.46-11.72-4.46-9.26,0-16.25,6.88-16.25,16h0Z"/><polygon class="cls-3" points="191.99 43.73 199.29 21.25 199.61 20.27 199.95 21.24 207.86 43.73 210.63 43.73 221.6 11.61 216.99 11.61 209.34 33.68 209.02 34.59 208.68 33.69 200.34 11.61 195.76 11.61 197.14 15.04 197.19 15.16 197.14 15.29 190.95 33.73 190.64 34.66 190.29 33.74 181.88 11.61 177.23 11.61 189.18 43.73 191.99 43.73 191.99 43.73"/><path class="cls-3" d="M251.72,29.13c-.32-.1-.64-.19-.96-.28-2.18-.62-5.16-1.48-5.09-4.34,.05-2.36,1.98-4.03,4.57-3.97,2.03,.05,3.56,1.15,4.11,2.82l1.92-2.35,.66-.78c-1.17-1.72-3.23-3.11-6.8-3.19-4.66-.11-8.53,3.24-8.63,7.46-.08,3.75,1.61,5.72,6.49,7.51l.86,.3c2.23,.76,5.27,1.8,5.21,4.62-.05,2.23-1.87,3.75-4.42,3.69-1.93-.04-3.54-1.28-4.11-2.97l-3.44,2.39c1.28,2.45,3.92,3.95,7.47,4.03,4.64,.11,8.48-3.24,8.58-7.47,.09-3.77-1.89-6.08-6.42-7.49h0Z"/></svg>